<?xml version="1.0"?>
<svg xmlns="http://www.w3.org/2000/svg" xmlns:xlink="http://www.w3.org/1999/xlink" xmlns:svgjs="http://svgjs.com/svgjs" version="1.1" width="512" height="512" x="0" y="0" viewBox="0 0 512 512" style="enable-background:new 0 0 512 512" xml:space="preserve" class=""><g><g xmlns="http://www.w3.org/2000/svg"><path d="m255.85 0c-107.502 0-190.696 86.94-190.631 190.853.05 79.684 29.051 103.065 184.751 318.061 2.981 4.119 9.084 4.112 12.06 0 153.932-212.555 184.7-237.473 184.751-318.061.064-103.659-82.792-190.853-190.931-190.853zm.15 314.366c-68.11 0-123.52-55.409-123.52-123.518 0-68.099 55.41-123.508 123.52-123.508s123.52 55.409 123.52 123.508c0 68.109-55.41 123.518-123.52 123.518z" fill="#ea4335" data-original="#000000" style="" class=""/><path d="m256 97.339c-51.57 0-93.52 41.95-93.52 93.509 0 51.569 41.95 93.519 93.52 93.519s93.52-41.95 93.52-93.519c0-51.56-41.95-93.509-93.52-93.509zm41.85 108.588h-26.85v26.65c0 8.28-6.72 15-15 15s-15-6.72-15-15v-26.65h-26.85c-8.28 0-15-6.72-15-15s6.72-15 15-15h26.85v-26.81c0-8.28 6.72-15 15-15s15 6.72 15 15v26.81h26.85c8.28 0 15 6.72 15 15s-6.72 15-15 15z" fill="#ea4335" data-original="#000000" style="" class=""/></g></g></svg>
